<?xml version="1.0" encoding="UTF-8"?>
<svg width="600px" height="600px" viewBox="0 0 600 600" version="1.1" xmlns="http://www.w3.org/2000/svg" xmlns:xlink="http://www.w3.org/1999/xlink">
    <!-- Generator: Sketch 61.2 (89653) - https://sketch.com -->
    <title>origin_G_dark__circle</title>
    <desc>Created with Sketch.</desc>
    <g id="origin_G_dark__circle" stroke="none" stroke-width="1" fill="none" fill-rule="evenodd">
        <rect id="Rectangle" fill="#1C1E1F" x="0" y="0" width="600" height="600" rx="300"></rect>
        <path d="M291.971163,324.584262 C323.571791,324.584262 342.709914,299.53374 342.709914,267.493073 C342.709914,235.442405 323.571791,210.391883 291.971163,210.391883 C260.350337,210.391883 239.151962,235.442405 239.151962,267.493073 C239.151962,299.53374 260.350337,324.584262 291.971163,324.584262 M183,434.286548 L218.286862,399.405821 C260.522025,441.12669 329.015299,441.12669 371.230263,399.405821 L406.507027,434.286548 C344.800464,495.237817 244.706562,495.237817 183,434.286548 M284.083631,161.380862 L284.083631,161.080856 L326.50058,161.080856 C349.486527,161.080856 368.07929,142.690473 368.07929,120 L418,120 C418,152.780683 400.34647,181.481281 373.91667,197.311611 C388.641411,214.691973 397.619666,237.832455 397.619666,265.42303 C397.619666,330.764391 346.880915,370.605221 290.728953,370.605221 C234.152821,370.605221 185.060252,330.764391 185.060252,266.263047 C185.060252,203.821746 231.617904,165.090939 284.083631,161.380862" id="Fill-9" fill="#FFFFFF"></path>
    </g>
</svg>